<svg xmlns:xlink="http://www.w3.org/1999/xlink" width="50" xmlns="http://www.w3.org/2000/svg" height="50" id="screenshot-063bbced-0741-8031-8002-a2c7807f29da" viewBox="0 0 50 50" style="-webkit-print-color-adjust: exact;" fill="none" version="1.1"><g id="shape-063bbced-0741-8031-8002-a2c7807f29da"><defs><clipPath class="frame-clip-def frame-clip" id="frame-clip-063bbced-0741-8031-8002-a2c7807f29da-rumext-id-1"><rect rx="0" ry="0" x="0" y="0" width="50" height="50" transform="matrix(1.000000, 0.000000, 0.000000, 1.000000, 0.000000, 0.000000)"/></clipPath></defs><g clip-path="url(#frame-clip-063bbced-0741-8031-8002-a2c7807f29da-rumext-id-1)"><clipPath class="frame-clip-def frame-clip" id="frame-clip-063bbced-0741-8031-8002-a2c7807f29da-rumext-id-1"><rect rx="0" ry="0" x="0" y="0" width="50" height="50" transform="matrix(1.000000, 0.000000, 0.000000, 1.000000, 0.000000, 0.000000)"/></clipPath><g class="fills" id="fills-063bbced-0741-8031-8002-a2c7807f29da"><rect rx="0" ry="0" x="0" y="0" transform="matrix(1.000000, 0.000000, 0.000000, 1.000000, 0.000000, 0.000000)" width="50" height="50" class="frame-background"/></g><g class="frame-children"><g id="shape-063bbced-0741-8031-8002-a2c78c12adc0"><g class="fills" id="fills-063bbced-0741-8031-8002-a2c78c12adc0"><path rx="0" ry="0" d="M0.000,1.950C0.000,0.874,1.288,0.000,2.875,0.000L20.125,0.000C21.712,0.000,23.000,0.874,23.000,1.950L23.000,6.500L0.000,6.500L0.000,1.950Z" style="fill: rgb(110, 109, 200); fill-opacity: 1;"/></g></g><g id="shape-063bbced-0741-8031-8002-a2c85adc9b9a" rx="0" ry="0"><g clip-path="url(#rumext-id-3-063bbced-0741-8031-8002-a2c78c12adc1-clip)"><g mask="url(#rumext-id-3-063bbced-0741-8031-8002-a2c78c12adc1-mask)"><defs><filter id="rumext-id-3-063bbced-0741-8031-8002-a2c78c12adc1-filter"><feFlood flood-color="white" result="FloodResult"/><feComposite in="FloodResult" in2="SourceGraphic" operator="in" result="comp"/></filter><clipPath id="rumext-id-3-063bbced-0741-8031-8002-a2c78c12adc1-clip" class="mask-clip-path"><polyline points="0,6 50,6 50,50 0,50"/></clipPath><mask width="50" maskUnits="userSpaceOnUse" height="44" class="mask-shape" x="0" id="rumext-id-3-063bbced-0741-8031-8002-a2c78c12adc1-mask" data-old-y="6" data-old-width="50" data-old-x="0" y="6" data-old-height="44"><g filter="url(#rumext-id-3-063bbced-0741-8031-8002-a2c78c12adc1-filter)"><g id="shape-063bbced-0741-8031-8002-a2c78c12adc1"><g class="fills" id="fills-063bbced-0741-8031-8002-a2c78c12adc1"><path d="M0,6 h50 a0,0 0 0 1 0,0 v39 a5,5 0 0 1 -5,5 h-40 a5,5 0 0 1 -5,-5 v-39 a0,0 0 0 1 0,0 z" x="0" y="6" transform="matrix(1.000000, 0.000000, 0.000000, 1.000000, 0.000000, 0.000000)" width="50" height="44" style="fill: rgb(140, 139, 255); fill-opacity: 1;"/></g></g></g></mask></defs><g id="shape-063bbced-0741-8031-8002-a2c8621a308d"><g class="fills" id="fills-063bbced-0741-8031-8002-a2c8621a308d"><path d="M0,6 h50 a0,0 0 0 1 0,0 v39 a5,5 0 0 1 -5,5 h-40 a5,5 0 0 1 -5,-5 v-39 a0,0 0 0 1 0,0 z" x="0" y="6" transform="matrix(1.000000, 0.000000, 0.000000, 1.000000, 0.000000, 0.000000)" width="50" height="44" style="fill: rgb(140, 139, 255); fill-opacity: 1;"/></g></g><g id="shape-063bbced-0741-8031-8002-a2c805658d1f"><g class="fills" id="fills-063bbced-0741-8031-8002-a2c805658d1f"><rect rx="0" ry="0" x="36.23312588140067" y="19.483125881400696" transform="matrix(0.707107, 0.707107, -0.707107, 0.707107, 39.086679, -15.897339)" width="4.999999999999943" height="39.500000000000085" style="fill: rgb(255, 255, 255); fill-opacity: 1;"/></g></g></g></g></g></g></g></g></svg>