<svg xmlns:xlink="http://www.w3.org/1999/xlink" width="50" xmlns="http://www.w3.org/2000/svg" height="50" id="screenshot-063bbced-0741-8031-8002-a2c89ddae0d4" viewBox="0 0 50 50" style="-webkit-print-color-adjust: exact;" fill="none" version="1.1"><g id="shape-063bbced-0741-8031-8002-a2c89ddae0d4"><defs><clipPath class="frame-clip-def frame-clip" id="frame-clip-063bbced-0741-8031-8002-a2c89ddae0d4-rumext-id-1"><rect rx="0" ry="0" x="0" y="0" width="50" height="49.99999999999997" transform="matrix(1.000000, 0.000000, 0.000000, 1.000000, 0.000000, 0.000000)"/></clipPath></defs><g clip-path="url(#frame-clip-063bbced-0741-8031-8002-a2c89ddae0d4-rumext-id-1)"><clipPath class="frame-clip-def frame-clip" id="frame-clip-063bbced-0741-8031-8002-a2c89ddae0d4-rumext-id-1"><rect rx="0" ry="0" x="0" y="0" width="50" height="49.99999999999997" transform="matrix(1.000000, 0.000000, 0.000000, 1.000000, 0.000000, 0.000000)"/></clipPath><g class="fills" id="fills-063bbced-0741-8031-8002-a2c89ddae0d4"><rect rx="0" ry="0" x="0" y="0" transform="matrix(1.000000, 0.000000, 0.000000, 1.000000, 0.000000, 0.000000)" width="50" height="49.99999999999997" class="frame-background"/></g><g class="frame-children"><g id="shape-063bbced-0741-8031-8002-a2c8f8ee4537"><g class="fills" id="fills-063bbced-0741-8031-8002-a2c8f8ee4537"><rect rx="5" ry="5" x="4.5" y="1" transform="matrix(1.000000, 0.000000, 0.000000, 1.000000, 0.000000, 0.000000)" width="41" height="48" style="fill: rgb(255, 255, 255); fill-opacity: 1;"/></g><g id="strokes-063bbced-0741-8031-8002-a2c8f8ee4537" class="strokes"><g class="stroke-shape"><rect rx="5" ry="5" x="4.5" y="1" transform="matrix(1.000000, 0.000000, 0.000000, 1.000000, 0.000000, 0.000000)" width="41" height="48" style="fill: none; stroke-width: 0.5; stroke: rgb(110, 109, 200); stroke-opacity: 1;"/></g></g></g><g id="shape-063bbced-0741-8031-8002-a2c9c0ffd7bb" rx="0" ry="0"><g id="shape-063bbced-0741-8031-8002-a2c92471c510"><g class="fills" id="fills-063bbced-0741-8031-8002-a2c92471c510"><rect rx="1" ry="1" x="10.375" y="6.5" transform="matrix(1.000000, 0.000000, 0.000000, 1.000000, 0.000000, 0.000000)" width="29.5" height="2" style="fill: rgb(110, 109, 200); fill-opacity: 1;"/></g></g><g id="shape-063bbced-0741-8031-8002-a2c9743732aa"><g class="fills" id="fills-063bbced-0741-8031-8002-a2c9743732aa"><rect rx="1" ry="1" x="10.125" y="13.5" transform="matrix(1.000000, 0.000000, 0.000000, 1.000000, 0.000000, 0.000000)" width="29.5" height="2" style="fill: rgb(110, 109, 200); fill-opacity: 1;"/></g></g><g id="shape-063bbced-0741-8031-8002-a2c999a42c1c"><g class="fills" id="fills-063bbced-0741-8031-8002-a2c999a42c1c"><rect rx="1" ry="1" x="10.125" y="34.5" transform="matrix(1.000000, 0.000000, 0.000000, 1.000000, 0.000000, 0.000000)" width="29.5" height="2" style="fill: rgb(110, 109, 200); fill-opacity: 1;"/></g></g><g id="shape-063bbced-0741-8031-8002-a2c9b8b706c8"><g class="fills" id="fills-063bbced-0741-8031-8002-a2c9b8b706c8"><rect rx="1" ry="1" x="10.125" y="41.5" transform="matrix(1.000000, 0.000000, 0.000000, 1.000000, 0.000000, 0.000000)" width="29.5" height="2" style="fill: rgb(110, 109, 200); fill-opacity: 1;"/></g></g><g id="shape-063bbced-0741-8031-8002-a2c97ce15ae6"><g class="fills" id="fills-063bbced-0741-8031-8002-a2c97ce15ae6"><rect rx="1" ry="1" x="10.125" y="20.5" transform="matrix(1.000000, 0.000000, 0.000000, 1.000000, 0.000000, 0.000000)" width="19.000000000000057" height="2" style="fill: rgb(110, 109, 200); fill-opacity: 1;"/></g></g><g id="shape-063bbced-0741-8031-8002-a2c9835127f8"><g class="fills" id="fills-063bbced-0741-8031-8002-a2c9835127f8"><rect rx="1" ry="1" x="10.125" y="27.5" transform="matrix(1.000000, 0.000000, 0.000000, 1.000000, 0.000000, 0.000000)" width="19.000000000000057" height="2" style="fill: rgb(110, 109, 200); fill-opacity: 1;"/></g></g></g></g></g></g></svg>